<?xml version="1.0" standalone="no"?>
<!DOCTYPE svg PUBLIC "-//W3C//DTD SVG 20010904//EN"
 "http://www.w3.org/TR/2001/REC-SVG-20010904/DTD/svg10.dtd">
<svg version="1.0" xmlns="http://www.w3.org/2000/svg"
 width="256.000000pt" height="256.000000pt" viewBox="0 0 256.000000 256.000000"
 preserveAspectRatio="xMidYMid meet">
<metadata>
Created by potrace 1.11, written by Peter Selinger 2001-2013
</metadata>
<g transform="translate(0.000000,256.000000) scale(0.100000,-0.100000)"
fill="#000000" stroke="none">
<path d="M799 2214 c-10 -12 -10 -22 0 -49 6 -18 9 -46 6 -62 -11 -61 -34
-165 -37 -168 -2 -2 -17 -6 -33 -9 -64 -12 -75 -15 -107 -30 -40 -19 -94 -69
-102 -93 -4 -10 -29 -33 -57 -52 -66 -45 -139 -128 -174 -197 -17 -34 -42 -65
-67 -82 -64 -44 -87 -67 -103 -105 -31 -75 -9 -142 68 -209 39 -34 55 -56 66
-92 31 -106 136 -230 246 -291 96 -53 145 -65 320 -80 39 -4 88 -9 110 -11 22
-2 74 -7 115 -10 41 -3 89 -7 105 -9 17 -1 68 -6 115 -10 47 -3 96 -8 109 -11
14 -2 63 -6 110 -10 47 -3 100 -8 116 -10 17 -2 86 -7 155 -10 142 -7 209 5
314 58 72 36 189 150 225 219 17 32 38 54 71 72 56 31 74 51 95 101 26 63 12
120 -46 181 -36 39 -55 69 -73 124 -25 75 -88 181 -131 221 -14 13 -25 33 -25
45 0 51 -86 141 -160 167 -20 7 -30 17 -31 31 -7 134 -4 209 8 219 7 6 13 21
13 33 0 52 -67 61 -85 12 -8 -24 -6 -31 8 -41 13 -11 17 -34 21 -125 l3 -112
-32 4 c-47 6 -132 -11 -179 -36 -23 -12 -43 -21 -46 -20 -3 1 -41 4 -85 7 -44
4 -100 9 -125 11 -51 5 -138 13 -220 20 -139 11 -206 18 -220 21 -8 1 -24 3
-36 3 -11 1 -29 10 -41 20 -26 25 -99 62 -132 67 -50 9 -50 8 -35 81 19 90 22
106 23 121 1 7 10 20 21 29 22 19 26 53 8 71 -17 17 -53 15 -69 -4z"/>
<path d="M956 585 c-55 -14 -111 -49 -141 -89 -46 -61 -53 -100 -55 -305 l-1
-191 538 0 538 0 -2 187 c-1 108 -7 206 -14 231 -15 55 -77 124 -136 152 -46
22 -59 23 -367 24 -195 1 -335 -3 -360 -9z"/>
<path d="M1962 442 c-17 -9 -52 -32 -77 -49 -41 -30 -45 -36 -41 -67 7 -50 27
-90 108 -211 l73 -110 143 -3 c95 -2 142 1 142 8 0 25 -33 84 -124 225 -107
163 -128 190 -167 210 -23 12 -30 12 -57 -3z"/>
<path d="M530 394 c-21 -18 -57 -79 -109 -188 -43 -89 -81 -171 -85 -183 l-7
-23 141 0 141 0 54 114 c58 119 78 192 63 220 -8 15 -139 86 -158 86 -5 0 -23
-12 -40 -26z"/>
</g>
</svg>
